HIERARCHY
ROOT hip
{
	OFFSET 0.000000 0.000000 0.000000 
	CHANNELS 6 Xposition Yposition Zposition Xrotation Zrotation Yrotation
	JOINT abdomen
	{
		OFFSET 0.000000 3.402643 0.000000 
		CHANNELS 3 Xrotation Zrotation Yrotation
		JOINT chest
		{
			OFFSET 0.000000 8.438565 -0.680529 
			CHANNELS 3 Xrotation Zrotation Yrotation
			JOINT neck
			{
				OFFSET 0.000000 10.207942 -0.272212 
				CHANNELS 3 Xrotation Zrotation Yrotation
				JOINT head
				{
					OFFSET 0.000000 3.130431 0.000000 
					CHANNELS 3 Xrotation Zrotation Yrotation
					End Site
					{
						OFFSET 0.000000 3.130435 0.000000 
					}
				}
			}
			JOINT lCollar
			{
				OFFSET 3.470700 6.669187 -0.816635 
				CHANNELS 3 Yrotation Zrotation Xrotation
				JOINT lShldr
				{
					OFFSET 3.198488 0.000000 0.000000 
					CHANNELS 3 Zrotation Yrotation Xrotation
					JOINT lForeArm
					{
						OFFSET 10.139888 0.000000 0.000000 
						CHANNELS 3 Yrotation Zrotation Xrotation
						JOINT lHand
						{
							OFFSET 8.370511 0.000000 0.000000 
							CHANNELS 3 Zrotation Yrotation Xrotation
							End Site
							{
								OFFSET 4.083176 0.000000 0.000000 
							}
						}
					}
				}
			}
			JOINT rCollar
			{
				OFFSET -3.470700 6.669187 -0.816635 
				CHANNELS 3 Yrotation Zrotation Xrotation
				JOINT rShldr
				{
					OFFSET -3.198488 0.000000 0.000000 
					CHANNELS 3 Zrotation Yrotation Xrotation
					JOINT rForeArm
					{
						OFFSET -10.139888 0.000000 0.000000 
						CHANNELS 3 Yrotation Zrotation Xrotation
						JOINT rHand
						{
							OFFSET -8.370511 0.000000 0.000000 
							CHANNELS 3 Zrotation Yrotation Xrotation
							End Site
							{
								OFFSET -4.083176 0.000000 0.000000 
							}
						}
					}
				}
			}
		}
	}
	JOINT lThigh
	{
		OFFSET 5.308129 -1.633274 1.361059 
		CHANNELS 3 Xrotation Zrotation Yrotation
		JOINT lShin
		{
			OFFSET -2.041588 -20.007561 0.000000 
			CHANNELS 3 Xrotation Zrotation Yrotation
			JOINT lFoot
			{
				OFFSET 0.000000 -19.190928 -1.224953 
				CHANNELS 3 Xrotation Yrotation Zrotation
				End Site
				{
					OFFSET 0.000000 -2.449906 4.627600 
				}
			}
		}
	}
	JOINT rThigh
	{
		OFFSET -5.308129 -1.633274 1.361059 
		CHANNELS 3 Xrotation Zrotation Yrotation
		JOINT rShin
		{
			OFFSET 2.041588 -20.007561 0.000000 
			CHANNELS 3 Xrotation Zrotation Yrotation
			JOINT rFoot
			{
				OFFSET 0.000000 -19.190928 -1.224953 
				CHANNELS 3 Xrotation Yrotation Zrotation
				End Site
				{
					OFFSET 0.000000 -2.449906 4.627600 
				}
			}
		}
	}
}
MOTION
Frames: 6
Frame Time: 0.033333
-89.738548 52.443420 52.762077 -4.951172 -5.263671 -51.757813 38.278625 -8.767632 -2.303934 -25.078125 9.843750 -0.048828 51.063168 8.107644 2.471410 -39.912109 -2.822265 -10.303216 2.000000 -2.000000 0.000000 -90.859375 23.984375 -26.308592 -38.267445 -2.028836 -1.461869 12.412053 37.548904 9.762425 -2.000000 2.000000 0.000000 73.398438 -2.011719 -11.474609 104.285347 -1.045322 -3.098394 4.346603 -43.489162 -33.700226 4.322162 -1.189864 4.993880 19.199039 -5.576285 -1.816254 -4.940940 6.568632 6.131378 -12.948657 -13.397192 -18.198921 30.581270 4.374214 2.499618 1.596682 -11.670295 -5.964221 
-90.512131 52.467049 53.073471 -4.941406 -5.097656 -51.446178 38.296303 -8.896558 -2.406019 -25.078125 9.843750 -0.048828 51.063168 8.107644 2.471410 -40.078125 -2.646484 -10.439454 2.000000 -2.000000 0.000000 -90.800781 24.501953 -26.499857 -38.091320 -2.067260 -1.449837 11.930524 37.396584 10.125357 -2.000000 2.000000 0.000000 73.574219 -1.953125 -11.513671 104.265335 -1.221373 -3.098798 4.346710 -43.479404 -33.700230 4.798802 -0.935723 4.816060 19.568281 -5.568454 -1.818765 -4.974407 6.272778 6.155882 -13.456527 -12.645417 -18.917240 25.645489 4.598069 2.315974 0.535499 -10.829964 -6.765203 
-91.301186 52.514320 53.356285 -4.765625 -4.912109 -50.927731 37.988289 -8.951263 -2.678422 -24.902344 9.843751 -0.019532 51.063168 8.107644 2.471410 -40.048828 -2.304688 -10.557034 2.000000 -2.000000 0.000000 -90.634766 24.697268 -26.201172 -37.919525 -1.899773 -1.596567 11.791522 37.355881 10.284371 -2.000000 2.000000 0.000000 73.583984 -1.953125 -11.689453 104.089569 -1.211624 -3.098234 3.797785 -43.144360 -33.285736 5.623804 -0.517014 4.475440 19.395592 -5.566836 -1.813601 -5.032444 5.979974 6.182734 -12.565155 -11.009759 -19.639463 17.196629 4.921427 1.484776 3.184286 -10.064682 -7.323246 
-92.104736 52.522198 53.613174 -4.765625 -4.736328 -50.585934 37.830647 -9.085882 -2.791588 -24.716799 10.009766 0.039062 51.063168 8.107644 2.471410 -40.029297 -2.119140 -10.517579 2.000000 -2.000000 0.000000 -90.791016 24.990232 -26.421656 -37.749718 -2.214636 -1.460750 12.007986 37.241234 9.906981 -2.000000 2.000000 0.000000 73.417969 -2.138672 -11.426147 104.089569 -1.211624 -3.098234 2.756173 -43.276276 -32.890388 6.302958 -0.028391 4.149128 19.381670 -5.581563 -1.804339 -5.037509 5.587368 5.928805 -10.975874 -9.041744 -20.204685 7.488056 5.164173 0.626327 8.254928 -9.559078 -7.954967 
-92.921249 52.553707 53.846691 -4.765625 -4.560547 -50.097660 37.497890 -9.229622 -2.909729 -24.541016 10.000001 0.058594 51.063168 8.107644 2.471410 -40.019535 -1.943359 -10.664063 2.000000 -2.000000 0.000000 -90.986328 24.531252 -26.054688 -37.391384 -1.907810 -1.566759 12.662928 37.581333 9.822768 -2.000000 2.000000 0.000000 73.251953 -2.148438 -11.933886 103.933792 -1.035573 -3.097831 2.001379 -43.263775 -32.716263 6.907319 0.400471 3.668046 19.732872 -5.558554 -1.851395 -4.848176 5.529929 5.870190 -9.528566 -7.573385 -20.903244 1.689191 5.213752 0.300369 10.702680 -9.061846 -8.371682 
-93.749771 52.545830 54.059155 -4.599609 -4.394531 -49.776142 37.146328 -9.229622 -2.909729 -24.355469 10.000001 0.097656 51.063168 8.107644 2.471410 -40.166016 -1.582031 -10.761720 2.000000 -2.000000 0.000000 -91.044922 24.482420 -25.884626 -37.215343 -1.907239 -1.557013 12.733677 37.767799 9.237136 -2.000000 2.000000 0.000000 73.261719 -2.177735 -12.128906 104.083801 -1.076996 -3.227158 1.814416 -43.761242 -32.740894 7.474545 0.830080 3.528528 19.910507 -5.539600 -1.863974 -4.630883 4.846337 5.606557 -9.804272 -7.831270 -21.386713 3.964310 5.194083 0.489868 10.037684 -8.998448 -8.271839 
